<svg xmlns="http://www.w3.org/2000/svg" xmlns:svg="http://www.w3.org/2000/svg" id="svg1" width="60" height="60" x="0" y="0" _SVGFile__filename="scalable/apps/kgpg.svg" version="1.0"><g id="g1554" transform="translate(0.230915,-0.235226)"><path style="font-size:12;fill:none;fill-opacity:.75;fill-rule:evenodd;stroke:#333;stroke-width:5;stroke-miterlimit:4" id="path612" d="M 12.986483,29.403286 C 15.818301,17.671464 20.875121,5.3328238 31.191034,5.5350970 C 41.304673,5.5350974 45.147854,18.885102 47.372855,29.605558"/><path style="font-size:12;fill:#ccc;fill-opacity:1;fill-rule:evenodd;stroke:#333;stroke-width:3.125;stroke-linejoin:round" id="rect611" d="M 9.8122082,28.265654 C 8.7042082,28.265654 7.8122082,29.157654 7.8122082,30.265654 L 7.8122082,53.817583 C 7.8122082,54.925583 8.7042082,55.817583 9.8122082,55.817583 L 50.547129,55.817583 C 51.655129,55.817583 52.547129,54.925583 52.547129,53.817583 L 52.547129,30.265654 C 52.547129,29.157654 51.655129,28.265654 50.547129,28.265654 L 9.8122082,28.265654 z"/></g><metadata id="metadata6"/><rect id="rect4208" width="1.118" height="2.55" x="22.392" y="29.959" rx="0" style="fill:#000;fill-opacity:1;stroke:#000;stroke-width:.27343532;stroke-opacity:1" ry="0"/><rect id="rect4210" width="1.118" height="2.55" x="25.206" y="29.959" rx="0" style="fill:#000;fill-opacity:1;stroke:#000;stroke-width:.27343532;stroke-opacity:1" ry="0"/><rect id="rect4212" width="1.118" height="2.55" x="28.039" y="29.959" rx="0" style="fill:#000;fill-opacity:1;stroke:#000;stroke-width:.27343532;stroke-opacity:1" ry="0"/><rect id="rect4214" width="1.118" height="2.55" x="30.863" y="29.959" rx="0" style="fill:#000;fill-opacity:1;stroke:#000;stroke-width:.27343532;stroke-opacity:1" ry="0"/><rect id="rect4216" width="1.118" height="2.55" x="33.676" y="30.06" rx="0" style="fill:#000;fill-opacity:1;stroke:#000;stroke-width:.27343532;stroke-opacity:1" ry="0"/><a id="a2680" transform="matrix(1.0764385,0,0,1.0764386,-3.9678317,-2.8218674)"><rect id="rect4218" width="16.99" height="16.919" x="22.958" y="-49.865" ry=".508" style="fill:silver;fill-opacity:0;stroke:#000;stroke-width:.26633105;stroke-opacity:1" rx=".606" transform="scale(1,-1)"/></a><rect id="rect4220" width="1.118" height="2.55" x="36.49" y="29.959" rx="0" style="fill:#000;fill-opacity:1;stroke:#000;stroke-width:.27343532;stroke-opacity:1" ry="0"/><rect id="rect4222" width="1.118" height="2.55" x="-46.626" y="18.137" rx="0" transform="matrix(0,-1,1,0,0,0)" style="fill:#000;fill-opacity:1;stroke:#000;stroke-width:.27343532;stroke-opacity:1" ry="0"/><rect id="rect4224" width="1.118" height="2.55" x="-35.312" y="18.137" rx="0" transform="matrix(0,-1,1,0,0,0)" style="fill:#000;fill-opacity:1;stroke:#000;stroke-width:.27343532;stroke-opacity:1" ry="0"/><rect id="rect4226" width="1.118" height="2.55" x="-38.136" y="18.137" rx="0" transform="matrix(0,-1,1,0,0,0)" style="fill:#000;fill-opacity:1;stroke:#000;stroke-width:.27343532;stroke-opacity:1" ry="0"/><rect id="rect4228" width="1.118" height="2.55" x="-40.959" y="18.137" rx="0" transform="matrix(0,-1,1,0,0,0)" style="fill:#000;fill-opacity:1;stroke:#000;stroke-width:.27343532;stroke-opacity:1" ry="0"/><rect id="rect4230" width="1.118" height="2.55" x="-43.783" y="18.137" rx="0" transform="matrix(0,-1,1,0,0,0)" style="fill:#000;fill-opacity:1;stroke:#000;stroke-width:.27343532;stroke-opacity:1" ry="0"/><rect id="rect4232" width="1.118" height="2.55" x="-49.43" y="18.137" rx="0" transform="matrix(0,-1,1,0,0,0)" style="fill:#000;fill-opacity:1;stroke:#000;stroke-width:.27343532;stroke-opacity:1" ry="0"/><rect id="rect4234" width="1.118" height="2.55" x="22.412" y="51.135" rx="0" style="fill:#000;fill-opacity:1;stroke:#000;stroke-width:.27343532;stroke-opacity:1" ry="0"/><rect id="rect4236" width="1.118" height="2.55" x="25.226" y="51.135" rx="0" style="fill:#000;fill-opacity:1;stroke:#000;stroke-width:.27343532;stroke-opacity:1" ry="0"/><rect id="rect4238" width="1.118" height="2.55" x="28.059" y="51.135" rx="0" style="fill:#000;fill-opacity:1;stroke:#000;stroke-width:.27343532;stroke-opacity:1" ry="0"/><rect id="rect4240" width="1.118" height="2.55" x="30.883" y="51.135" rx="0" style="fill:#000;fill-opacity:1;stroke:#000;stroke-width:.27343532;stroke-opacity:1" ry="0"/><rect id="rect4242" width="1.118" height="2.55" x="33.686" y="51.135" rx="0" style="fill:#000;fill-opacity:1;stroke:#000;stroke-width:.27343532;stroke-opacity:1" ry="0"/><rect id="rect4244" width="1.118" height="2.55" x="36.51" y="51.135" rx="0" style="fill:#000;fill-opacity:1;stroke:#000;stroke-width:.27343532;stroke-opacity:1" ry="0"/><rect id="rect4246" width="1.118" height="2.55" x="-46.626" y="39.313" rx="0" transform="matrix(0,-1,1,0,0,0)" style="fill:#000;fill-opacity:1;stroke:#000;stroke-width:.27343532;stroke-opacity:1" ry="0"/><rect id="rect4248" width="1.118" height="2.55" x="-35.312" y="39.313" rx="0" transform="matrix(0,-1,1,0,0,0)" style="fill:#000;fill-opacity:1;stroke:#000;stroke-width:.27343532;stroke-opacity:1" ry="0"/><rect id="rect4250" width="1.118" height="2.55" x="-38.136" y="39.313" rx="0" transform="matrix(0,-1,1,0,0,0)" style="fill:#000;fill-opacity:1;stroke:#000;stroke-width:.27343532;stroke-opacity:1" ry="0"/><rect id="rect4252" width="1.118" height="2.55" x="-40.959" y="39.313" rx="0" transform="matrix(0,-1,1,0,0,0)" style="fill:#000;fill-opacity:1;stroke:#000;stroke-width:.27343532;stroke-opacity:1" ry="0"/><rect id="rect4254" width="1.118" height="2.55" x="-43.783" y="39.313" rx="0" transform="matrix(0,-1,1,0,0,0)" style="fill:#000;fill-opacity:1;stroke:#000;stroke-width:.27343532;stroke-opacity:1" ry="0"/><rect id="rect4256" width="1.118" height="2.55" x="-49.43" y="39.313" rx="0" transform="matrix(0,-1,1,0,0,0)" style="fill:#000;fill-opacity:1;stroke:#000;stroke-width:.27343532;stroke-opacity:1" ry="0"/><text xml:space="preserve" style="font-size:12px;font-style:normal;font-weight:400;fill:#000;fill-opacity:1;stroke:none;stroke-width:1px;stroke-linecap:butt;stroke-linejoin:miter;stroke-opacity:1;font-family:Bitstream Vera Sans Mono" id="text2683" x="22.676" y="45.092"><tspan id="tspan2685" x="22.676" y="45.092">µC</tspan></text><text xml:space="preserve" style="font-size:40px;font-style:normal;font-weight:700;text-align:start;text-anchor:start;fill:#000;fill-opacity:1;stroke:none;stroke-width:1px;stroke-linecap:butt;stroke-linejoin:miter;stroke-opacity:1;font-family:Bitstream Vera Sans;-inkscape-font-specification:Sans" id="text2410" x="65.351" y="47.988"><tspan id="tspan2412" x="65.351" y="47.988">AVR-Crypto-Lib</tspan></text></svg>